<?xml version="1.0" encoding="utf-8"?><svg xmlns="http://www.w3.org/2000/svg" xmlns:xlink="http://www.w3.org/1999/xlink"><symbol viewBox="0 0 37.5 37.5" id="dribble__icon"><path d="M10.43 34.856C6.34 33 4.5 31.159 2.643 27.07c-3.131-6.9-3.093-10.184.195-16.977 1.994-4.119 3.995-6.133 7.813-7.867 6.51-2.957 10.05-2.936 16.737.1 4.087 1.855 5.93 3.697 7.785 7.784 1.336 2.945 2.43 6.761 2.43 8.48s-1.094 5.535-2.43 8.48c-1.856 4.088-3.698 5.93-7.785 7.785-6.737 3.057-10.224 3.057-16.96 0zM25.68 24.78c3.209-3.08 3.089-9.385-.243-12.717-5.643-5.642-15.695-1.549-15.695 6.392 0 8.801 9.451 12.552 15.938 6.325zm-10.521-.52c0-2.84 4.567-4.849 5.5-2.419 1.306 3.404.833 4.25-2.375 4.25-1.911 0-3.125-.711-3.125-1.83zm7.5-1.766c0-1.525.797-2.653 1.875-2.653 1.031 0 1.875.494 1.875 1.097s-.844 1.797-1.875 2.653c-1.567 1.3-1.875 1.12-1.875-1.097zm-10.745-.64c-.983-2.562-.865-2.678 3.87-3.8 3.178-.754 3.464-.638 1.875.761-1.031.908-2.563 2.44-3.403 3.405-1.299 1.492-1.65 1.437-2.342-.366zm10.904-6.622c1.495-1.837 1.446-2.008-.38-1.324-1.169.437-2.758-.012-3.59-1.016-2.335-2.813 2.928-2.348 5.492.485 2.746 3.034 2.609 3.964-.584 3.964-2.334 0-2.447-.254-.938-2.109zm-9.922-1.164c1.113-1.112 2.64-1.642 3.393-1.176 2.482 1.534 1.43 3.2-2.023 3.2-3.126 0-3.234-.16-1.37-2.024z"/></symbol><symbol viewBox="0 0 37.5 37.5" id="facebook__icon"><path d="M9.701 34.922C4.424 32.136 0 24.761 0 18.75 0 9.238 9.238 0 18.75 0S37.5 9.238 37.5 18.75c0 6.203-4.422 13.404-9.967 16.233-6.16 3.143-11.8 3.123-17.832-.061zM20 23.75c0-3.611.52-5 1.875-5 2.55 0 2.368-2.1-.312-3.604-2.084-1.17-2.084-1.268 0-2.07 2.364-.912 3.04-4.326.855-4.326-2.542 0-6.168 2.598-6.168 4.419C16.25 14.176 15.688 15 15 15s-1.25.844-1.25 1.875.563 1.875 1.25 1.875 1.25 2.25 1.25 5c0 3.611.52 5 1.875 5S20 27.361 20 23.75z"/></symbol><symbol viewBox="0 0 37.5 37.5" id="github__icon"><path d="M9.86 34.922C4.583 32.136.16 24.761.16 18.75.159 9.238 9.397 0 18.909 0s18.75 9.238 18.75 18.75c0 6.203-4.422 13.404-9.967 16.233-6.16 3.143-11.8 3.123-17.832-.061zm14.608-7.397c4.594-1.747 6.206-5.97 4.582-12.002l-1.32-4.898H10.073l-1.406 4.691c-2.948 9.84 5.29 16.206 15.802 12.21zm-12.582-3.084c-1.645-4.287.444-5.84 7.321-5.444 6.081.35 6.577.614 6.577 3.503s-.496 3.154-6.577 3.503c-5.036.29-6.75-.076-7.32-1.562zM16.41 22.5c0-1.375-.563-2.5-1.25-2.5s-1.25 1.125-1.25 2.5.562 2.5 1.25 2.5 1.25-1.125 1.25-2.5zm7.5 0c0-1.375-.563-2.5-1.25-2.5s-1.25 1.125-1.25 2.5.562 2.5 1.25 2.5 1.25-1.125 1.25-2.5z"/></symbol><symbol viewBox="0 0 37.5 37.5" id="instagram__icon"><path d="M9.701 35.399C4.424 32.613 0 25.237 0 19.227 0 9.715 9.238.477 18.75.477S37.5 9.715 37.5 19.227c0 6.202-4.422 13.404-9.967 16.233-6.16 3.142-11.8 3.123-17.832-.061zm17.549-7.672c.825-.825 1.5-3.075 1.5-5 0-4.231-3.568-4.83-5.96-1-.859 1.375-2.677 2.5-4.04 2.5s-3.181-1.125-4.04-2.5c-2.392-3.83-5.96-3.231-5.96 1 0 1.925.675 4.175 1.5 5 1.948 1.947 15.052 1.947 17 0zm-5.375-8.5c0-2.291-.752-3.232-2.818-3.525-1.69-.24-3.12.385-3.571 1.562-1.245 3.243.5 5.924 3.57 5.488 2.067-.293 2.819-1.234 2.819-3.525zM15 16.102c.856-1.032 2.543-1.875 3.75-1.875s2.894.843 3.75 1.875c2.504 3.017 6.25 2.36 6.25-1.097 0-4.54-2.731-5.952-10.703-5.531-7.537.397-10.43 2.495-8.91 6.458.98 2.556 3.814 2.638 5.863.17zm8.75-3.125c0-.688.562-1.25 1.25-1.25s1.25.562 1.25 1.25-.563 1.25-1.25 1.25-1.25-.563-1.25-1.25z"/></symbol><symbol viewBox="0 0 22.5 15" id="mail__icon"><path d="M1.06 7.718c0-5.729.023-5.761 2.812-3.85 1.547 1.06 2.715 2.405 2.596 2.989-.119.584 1.947 1.062 4.591 1.062 2.645 0 4.71-.478 4.592-1.062-.12-.584 1.049-1.93 2.596-2.99 2.789-1.91 2.812-1.878 2.812 3.851v5.778h-20V7.718zM6.683 4.16l-3.75-3.074h16.25l-3.75 3.074c-2.062 1.69-4.03 3.073-4.375 3.073S8.747 5.85 6.684 4.16z"/></symbol><symbol viewBox="0 0 17.5 17.5" id="phone__icon"><path d="M4.968 12.84C1.326 9.199.026 6.875.026 4.003.026.686.49.105 3.127.105c2.368 0 3.28.813 3.855 3.437 1.332 6.078 1.668 6.562 4.567 6.582 6.763.045 8.405 6.502 1.846 7.257-2.686.31-4.619-.732-8.427-4.54z"/></symbol><symbol viewBox="0 0 60 70" id="services__bulb"><path d="M2.916 67.077c-4.83-4.831-3.512-9.795 7.56-28.47L20 22.543V12.67c0-5.749-.522-9.873-1.25-9.873-.688 0-1.25-.563-1.25-1.25 0-.688 1.125-1.25 2.5-1.25 1.667 0 2.5.833 2.5 2.5 0 1.944.833 2.5 3.75 2.5 2.063 0 3.75.562 3.75 1.25s-1.688 1.25-3.75 1.25c-2.917 0-3.75.555-3.75 2.5 0 1.666.833 2.5 2.5 2.5 1.375 0 2.5.562 2.5 1.25s-1.125 1.25-2.5 1.25c-1.667 0-2.5.833-2.5 2.5 0 1.944.833 2.5 3.75 2.5 2.063 0 3.75.562 3.75 1.25s-1.668 1.25-3.706 1.25c-2.427 0-4.168.863-5.044 2.5-1.201 2.244-.95 2.5 2.456 2.5 2.087 0 3.794.562 3.794 1.25s-2.11 1.27-4.688 1.296c-4.634.046-4.776.2-12.5 13.568C6.016 51.348 2.5 58.64 2.5 60.115c0 1.475 1.125 3.807 2.5 5.182 2.315 2.314 4.167 2.5 25 2.5s22.685-.186 25-2.5c1.375-1.375 2.5-3.802 2.5-5.393 0-1.59-4.491-10.45-9.98-19.687l-9.981-16.795-.02-11.563C37.501 1.124 37.68.297 40 .297c1.375 0 2.5.562 2.5 1.25s-.562 1.25-1.25 1.25c-.728 0-1.25 4.138-1.25 9.913v9.914l9.998 16.649c11.145 18.557 12.176 22.713 6.934 27.955-3.043 3.044-3.262 3.069-26.932 3.069H6.136l-3.22-3.22zm4.048-3.745C3.93 60.297 4.515 58.01 11.35 46.234l6.348-10.937h24.604l6.348 10.937c6.982 12.03 7.439 13.94 4.064 16.994-3.317 3.002-42.762 3.092-45.75.104zm44.648-3.155c.961-1.526-.178-4.388-4.852-12.187l-6.108-10.193-10.639.015-10.638.015-5.625 9.61C6.926 59.095 7.097 58.693 7.98 60.993c1.093 2.85 41.802 2.09 43.632-.816z"/></symbol><symbol class="hcloud" viewBox="0 0 47.5 45" id="services__cloud-small"><path class="hcloud__path" d="M19.173 39.933c-3.766-3.931-3.107-5.252.839-1.682 2.2 1.991 2.286 1.613 2.286-10 0-7.212.503-12.068 1.25-12.068s1.25 4.856 1.25 12.068c0 11.613.086 11.991 2.286 10 3.945-3.57 4.605-2.25.839 1.682-1.976 2.062-3.945 3.75-4.375 3.75-.43 0-2.4-1.688-4.375-3.75zM4.34 27.342c-5.038-3.963-4.49-9.37 1.541-15.222 2.658-2.578 6.004-4.687 7.437-4.687 1.433 0 3.055-.762 3.604-1.693 1.522-2.576 6.02-4.557 10.35-4.557 4.485 0 9.494 4.324 10.735 9.267.446 1.778 1.507 3.233 2.357 3.233 2.557 0 5.683 4.35 5.683 7.91 0 5.713-3.95 8.364-12.188 8.176l-7.187-.164 7.413-.945c7.472-.952 10.734-3.211 10.693-7.404-.03-2.984-1.576-4.791-5.319-6.214-2.436-.926-3.412-2.175-3.412-4.363 0-3.458-5.226-8.246-9-8.246-3.025 0-7.558 2.328-8.875 4.557-.55.931-2.171 1.693-3.604 1.693-3.423 0-12.269 8.646-12.27 11.993-.002 3.92 4.435 7.183 11.014 8.103l5.86.82-5.769.167c-4.128.12-6.706-.57-9.063-2.424z"/></symbol><symbol viewBox="0 0 37.5 37.5" id="twiter__icon"><path d="M10.02 35.399C4.741 32.613.317 25.237.317 19.227c0-9.512 9.238-18.75 18.75-18.75s18.75 9.238 18.75 18.75c0 6.202-4.422 13.404-9.967 16.233-6.16 3.142-11.8 3.123-17.832-.061zm12.798-9.794c2.761-1.996 3.738-3.888 5.876-11.378.826-2.895.716-3.075-2.365-3.867-3.513-.902-7.261.794-7.261 3.286 0 2.357-1.692 2.313-6.494-.17l-3.87-2.001.724 5.394c.398 2.967 1.644 6.068 2.768 6.89 1.83 1.337 1.74 1.591-.854 2.416-2.789.886-2.804.96-.4 1.925 3.267 1.312 7.98.321 11.876-2.495z"/></symbol></svg>